<svg xmlns="http://www.w3.org/2000/svg" xmlns:xlink="http://www.w3.org/1999/xlink" x="0" y="0" enable-background="new 0 0 595.3 841.9" version="1.1" viewBox="0 0 595.3 841.9" xml:space="preserve"><style type="text/css">.st0{fill:#654995}.st1{fill:#8164a9}.st2{fill:none}.st3{font-family:&apos;LiberationSans-Bold&apos;}.st4{font-size:47px}.st5{fill:#e5e5d6}.st6{fill:#fff}.st7{display:none}.st8{display:inline;fill:#fdeff0}</style><g id="Shield_1_"><polygon id="Shield" points="127.7 187.3 466.3 187.3 437 532 297 573 156.5 532.5" class="st0"/><polygon id="degradé" points="297 216.5 441.7 216.5 416 509.3 297.6 542.8" class="st1"/><rect width="338.7" height="62.7" x="128.3" y="129.7" class="st2"/><text class="st3 st4" transform="matrix(1 0 0 1 184.064 163.7412)">BootStrap</text></g><g id="EPart_1"><polygon points="297 265.8 297 295.1 253.6 295.1 253.6 354.4 297 354.4 297 382.6 253.7 382.8 253.6 454.2 297 454.2 297 485.1 216.3 485.1 216.3 265.8" class="st5"/><path d="M297,265.8c0,0,82-2.1,82,48.9c0,42.7-26.1,51.5-26.1,51.5s39,16.4,37.4,59.6c-1.3,37-31.6,51.8-44,57.5 c-2.8,1.3-5.9,1.9-9,1.9H297v-31H323c0.9,0,1.7-0.1,2.6-0.3c6.1-1.3,29.1-8.2,28.8-36.2c-0.2-18.6-15.6-29.1-22.8-33.1 c-2.2-1.2-4.6-1.8-7.1-1.8l-27.4-0.1v-28.3h22.8c2.6,0,5.2-0.8,7.3-2.2c6.5-4.3,19.5-13.2,19.5-28.6c0-16.9-17.4-25.5-24.3-27.6 c-1.6-0.5-3.3-0.8-5-0.8l-20.4-0.1V265.8z" class="st6"/></g><g id="dim" class="st7"><rect width="208.9" height="235.8" x="195" y="258.8" class="st8"/></g></svg>