<?xml version="1.0" encoding="utf-8"?>
<!-- Generator: Adobe Illustrator 19.1.1, SVG Export Plug-In . SVG Version: 6.00 Build 0)  -->
<svg version="1.1" xmlns="http://www.w3.org/2000/svg" xmlns:xlink="http://www.w3.org/1999/xlink" x="0px" y="0px"
	 viewBox="0 0 595.3 841.9" style="enable-background:new 0 0 595.3 841.9;" xml:space="preserve">
<style type="text/css">
	.st0{fill:#1572B7;}
	.st1{fill:#33A9DC;}
	.st2{fill:none;}
	.st3{font-family:'LiberationSans-Bold';}
	.st4{font-size:47px;}
	.st5{fill:#E5E5D6;}
	.st6{fill:#FFFFFF;}
</style>
<g id="Shield_1_">
	<polygon id="Shield" class="st0" points="127.7,187.3 466.3,187.3 437,532 297,573 156.5,532.5 	"/>
	<polygon id="degradé" class="st1" points="297,216.5 441.7,216.5 416,509.3 297.6,542.8 	"/>
	<rect x="128.3" y="129.7" class="st2" width="338.7" height="62.7"/>
	<text transform="matrix(1 0 0 1 249.3204 163.7412)" class="st3 st4">CSS</text>
</g>
<g id="EPart_1">
	<polygon class="st5" points="187.3,250.8 297,250.8 297,290.8 190.3,290.8 	"/>
	<polygon class="st5" points="235,330.1 297,330.1 297,370.9 238.3,370.8 	"/>
	<polygon class="st5" points="203,402.8 243.3,402.5 246.3,433.5 297,447 297,488 208.5,466.8 	"/>
</g>
<g id="EPart_2">
	<polygon class="st6" points="297,250.8 297,290.8 362.5,290.8 359,330.1 297,330.1 297,370.9 355.3,371 349.3,434.5 297,447 
		297,488 388.3,465.8 406.8,250.8 	"/>
</g>
</svg>
