<svg xmlns="http://www.w3.org/2000/svg" xmlns:xlink="http://www.w3.org/1999/xlink" x="0" y="0" enable-background="new 0 0 595.3 841.9" version="1.1" viewBox="0 0 595.3 841.9" xml:space="preserve"><style type="text/css">.st0{fill:#1572b7}.st1{fill:#33a9dc}.st2{fill:none}.st3{font-family:&apos;LiberationSans-Bold&apos;}.st4{font-size:47px}.st5{fill:#e5e5d6}.st6{fill:#fff}</style><g id="Shield_1_"><polygon id="Shield" points="127.7 187.3 466.3 187.3 437 532 297 573 156.5 532.5" class="st0"/><polygon id="degradé" points="297 216.5 441.7 216.5 416 509.3 297.6 542.8" class="st1"/><rect width="338.7" height="62.7" x="128.3" y="129.7" class="st2"/><text class="st3 st4" transform="matrix(1 0 0 1 249.3204 163.7412)">CSS</text></g><g id="EPart_1"><polygon points="187.3 250.8 297 250.8 297 290.8 190.3 290.8" class="st5"/><polygon points="235 330.1 297 330.1 297 370.9 238.3 370.8" class="st5"/><polygon points="203 402.8 243.3 402.5 246.3 433.5 297 447 297 488 208.5 466.8" class="st5"/></g><g id="EPart_2"><polygon points="297 250.8 297 290.8 362.5 290.8 359 330.1 297 330.1 297 370.9 355.3 371 349.3 434.5 297 447 297 488 388.3 465.8 406.8 250.8" class="st6"/></g></svg>