<svg xmlns="http://www.w3.org/2000/svg" xmlns:xlink="http://www.w3.org/1999/xlink" x="0" y="0" enable-background="new 0 0 595.3 841.9" version="1.1" viewBox="0 0 595.3 841.9" xml:space="preserve"><style type="text/css">.st0{fill:#e37032}.st1{fill:#df8e35}.st2{fill:none}.st3{font-family:&apos;LiberationSans-Bold&apos;}.st4{font-size:47px}.st5{fill:#e5e5d6}.st6{fill:#fdeff0}</style><g id="Shield_1_"><polygon id="Shield" points="127.7 187.3 466.3 187.3 437 532 297 573 156.5 532.5" class="st0"/><polygon id="degradé" points="297 216.5 441.7 216.5 416 509.3 297.6 542.8" class="st1"/><rect width="338.7" height="62.7" x="128.3" y="129.7" class="st2"/><text class="st3 st4" transform="matrix(1 0 0 1 232.3838 163.7412)">HTML</text></g><g id="EPart_1"><polygon points="298.3 262 193.7 262 205.6 387.5 298.3 388.5 298.3 346.7 243.7 347 239.6 303.5 298.3 303.5" class="st5"/><polygon points="207 408.4 249 408.4 252.7 441 298.3 454.3 298.3 497.8 212.8 473.8" class="st5"/></g><g id="EPart_2"><polygon points="298.3 346.7 395 346.7 384.3 473.8 298.3 497.8 298.3 454.3 345.4 441.7 348.6 388.5 298.3 388.5" class="st6"/><polygon points="298.3 262 402.5 262 399.1 304 298.3 303.5" class="st6"/></g></svg>