<?xml version="1.0" encoding="utf-8"?>
<!-- Generator: Adobe Illustrator 19.1.1, SVG Export Plug-In . SVG Version: 6.00 Build 0)  -->
<svg version="1.1" xmlns="http://www.w3.org/2000/svg" xmlns:xlink="http://www.w3.org/1999/xlink" x="0px" y="0px"
	 viewBox="0 0 595.3 841.9" style="enable-background:new 0 0 595.3 841.9;" xml:space="preserve">
<style type="text/css">
	.st0{fill:#E37032;}
	.st1{fill:#DF8E35;}
	.st2{fill:none;}
	.st3{font-family:'LiberationSans-Bold';}
	.st4{font-size:47px;}
	.st5{fill:#E5E5D6;}
	.st6{fill:#FDEFF0;}
</style>
<g id="Shield_1_">
	<polygon id="Shield" class="st0" points="127.7,187.3 466.3,187.3 437,532 297,573 156.5,532.5 	"/>
	<polygon id="degradé" class="st1" points="297,216.5 441.7,216.5 416,509.3 297.6,542.8 	"/>
	<rect x="128.3" y="129.7" class="st2" width="338.7" height="62.7"/>
	<text transform="matrix(1 0 0 1 232.3838 163.7412)" class="st3 st4">HTML</text>
</g>
<g id="EPart_1">
	<polygon class="st5" points="298.3,262 193.7,262 205.6,387.5 298.3,388.5 298.3,346.7 243.7,347 239.6,303.5 298.3,303.5 	"/>
	<polygon class="st5" points="207,408.4 249,408.4 252.7,441 298.3,454.3 298.3,497.8 212.8,473.8 	"/>
</g>
<g id="EPart_2">
	<polygon class="st6" points="298.3,346.7 395,346.7 384.3,473.8 298.3,497.8 298.3,454.3 345.4,441.7 348.6,388.5 298.3,388.5 	"/>
	<polygon class="st6" points="298.3,262 402.5,262 399.1,304 298.3,303.5 	"/>
</g>
<g id="dim">
</g>
</svg>
