<svg xmlns="http://www.w3.org/2000/svg" xmlns:xlink="http://www.w3.org/1999/xlink" x="0" y="0" enable-background="new 0 0 595.3 841.9" version="1.1" viewBox="0 0 595.3 841.9" xml:space="preserve"><style type="text/css">.st0{fill:#0d69ac}.st1{fill:#428baf}.st2{fill:none}.st3{font-family:&apos;LiberationSans-Bold&apos;}.st4{font-size:47px}.st5{fill:#fff}.st6{fill:#e5e5d6}</style><g id="Shield_1_"><polygon id="Shield" points="127.7 187.3 466.3 187.3 437 532 297 573 156.5 532.5" class="st0"/><polygon id="degradé" points="297 216.5 441.7 216.5 416 509.3 297.6 542.8" class="st1"/><rect width="338.7" height="62.7" x="128.3" y="129.7" class="st2"/><text class="st3 st4" transform="matrix(1 0 0 1 220.5762 163.7412)">Jquery</text></g><g id="dim"><g><path d="M207.3,293.2c-1.7,7.5-2.9,15-3.6,22.5c-2.7,30.5,4.1,58.3,23.6,82.4c13.5,16.8,30.7,29.1,49.5,39.3 c14.3,7.7,29.6,11.6,45.8,12.8c20.4,1.5,40-1.5,58.6-10.4c9.5-4.5,17.8-10.6,25.3-18c0.2-0.2,0.4-0.6,1-0.5 c-1.6,3.6-3.4,7-5.6,10.2c-16.7,24.9-39.8,40.6-69.2,45.5c-45,7.5-83.9-5.4-115.8-38.2c-16.2-16.6-27.3-36.3-32.6-59 c-4.9-21.1-4.3-41.9,4.9-62c3.9-8.6,9.3-16.3,15.8-23.2C205.6,293.9,206.2,293.4,207.3,293.2z" class="st5"/><path d="M267.1,272.5c-0.9,6.3-1.8,12.5-2.1,18.8c-1,20.9,3.9,39.9,17.2,56.5c9.3,11.6,21.1,20.1,34.2,27.1 c12.1,6.5,24.9,10.6,38.6,11c21.1,0.7,39.4-6.1,54.8-20.6c0.7-0.7,1.4-1.4,2.1-2.1c0.7-0.7,1.4-1.4,2.2-2.1 c-1.8,5-4.4,9.7-7.4,14.1c-10,14.2-23.8,23-40.2,27.3c-32.9,8.7-62.1,1.7-87.3-21.4c-12.4-11.3-21.9-24.7-26.3-41.1 c-4.4-16.2-4.7-32.4,1.9-48.2C257.5,284.6,261.8,278.2,267.1,272.5z" class="st5"/><path d="M317.5,259.4c-2.1,12.4-1.4,24.6,4.7,35.7c10.4,18.8,26.6,30,47.9,33.5c10.9,1.8,21.3-0.7,31.3-5.3 c0.5-0.2,1-0.5,1.5-0.7c0.5,0.6-0.1,1-0.3,1.3c-7.5,11-18.1,16.6-31.2,17.4c-13.3,0.8-26-1.5-37.3-9 c-14.2-9.5-23.1-22.8-26.3-39.5C305.4,280.3,309.7,269.2,317.5,259.4z" class="st5"/></g><g><path d="M297,478.5c-29.7-2.9-56.2-16.2-79.1-39.7c-16.2-16.6-27.3-36.3-32.6-59c-4.9-21.1-4.3-41.9,4.9-62 c3.9-8.6,9.3-16.3,15.8-23.2c0.6-0.6,1.2-1.2,2.4-1.3c-1.7,7.5-2.9,15-3.6,22.5c-2.7,30.5,4.1,58.3,23.6,82.4 c13.5,16.8,30.7,29.1,49.5,39.3c6.4,3.4,13,6.1,19.8,8.2" class="st6"/></g><path d="M297,394.4c-6.2-3.6-12.2-8-18-13.3c-12.4-11.3-21.9-24.7-26.3-41.1c-4.4-16.2-4.7-32.4,1.9-48.2 c3-7.2,7.3-13.5,12.6-19.3c-0.9,6.3-1.8,12.5-2.1,18.8c-1,20.9,3.9,39.9,17.2,56.5c4.6,5.7,9.8,10.7,15.4,15.1" class="st6"/></g></svg>