<svg xmlns="http://www.w3.org/2000/svg" xmlns:xlink="http://www.w3.org/1999/xlink" x="0" y="0" enable-background="new 0 0 595.3 841.9" version="1.1" viewBox="0 0 595.3 841.9" xml:space="preserve"><style type="text/css">.st0{fill:#e8a64f}.st1{fill:#f3bf50}.st2{fill:none}.st3{font-family:&apos;LiberationSans-Bold&apos;}.st4{font-size:47px}.st5{fill:#fff}.st6{fill:#e5e5d6}.st7{display:none}.st8{display:inline;fill:#fdeff0}</style><g id="Shield_1_"><polygon id="Shield" points="127.7 187.3 466.3 187.3 437 532 297 573 156.5 532.5" class="st0"/><polygon id="degradé" points="297 216.5 441.7 216.5 416 509.3 297.6 542.8" class="st1"/><rect width="338.7" height="62.7" x="128.3" y="129.7" class="st2"/><text class="st3 st4" transform="matrix(1 0 0 1 142.2505 163.7412)">JAVA SCRIPT</text></g><g id="EPart_1"><polygon points="297.9 257.2 387.7 257.2 397 324.3 353.8 324.3 351.6 300.4 297.9 300.4" class="st5"/><polygon points="297.9 344 397 344 386.2 473.8 297.9 499.5 297.9 454.7 345.6 442.1 349.7 385.4 297.9 385.4" class="st5"/></g><g id="EPart_2"><polygon points="297.9 257.2 214.8 257.2 203.6 385.4 297.9 385.4 297.9 344 247.9 344 250.7 301.1 297.9 300.4" class="st6"/><polygon points="297.9 454.7 250.7 442.1 248.3 408.2 205.4 408.2 211.4 472.6 297.9 499.5" class="st6"/></g><g id="dim" class="st7"><rect width="208.9" height="235.8" x="195" y="258.8" class="st8"/></g></svg>