<?xml version="1.0" encoding="utf-8"?>
<!-- Generator: Adobe Illustrator 19.1.1, SVG Export Plug-In . SVG Version: 6.00 Build 0)  -->
<svg version="1.1" xmlns="http://www.w3.org/2000/svg" xmlns:xlink="http://www.w3.org/1999/xlink" x="0px" y="0px"
	 viewBox="0 0 595.3 841.9" style="enable-background:new 0 0 595.3 841.9;" xml:space="preserve">
<style type="text/css">
	.st0{fill:#275F89;}
	.st1{fill:#DB8E1C;}
	.st2{fill:none;}
	.st3{font-family:'LiberationSans-Bold';}
	.st4{font-size:47px;}
	.st5{fill:#E3E3E3;}
	.st6{fill:#FFFFFF;}
</style>
<g id="Shield_1_">
	<polygon id="Shield" class="st0" points="127.7,187.3 466.3,187.3 437,532 297,573 156.5,532.5 	"/>
	<polygon id="degradé" class="st1" points="297,216.5 441.7,216.5 416,509.3 297.6,542.8 	"/>
	<rect x="128.3" y="129.7" class="st2" width="338.7" height="62.7"/>
	<text transform="matrix(1 0 0 1 216.6866 163.7412)" class="st3 st4">MySQL</text>
</g>
<g id="EPart_1">
</g>
<g id="EPart_2">
</g>
<g id="dim">
	<g>
		<path class="st5" d="M198.9,263.1c8.5,4.6,17,9.1,25.5,13.6c0.8,0.4,1.7,0.7,2.6,0.7c23.5-0.1,40.9,12.9,57.3,27.3
			c15.2,13.4,27,29.4,34.7,48.4c4.8,11.9,10.5,23.4,16.4,34.8c1.6,3.2,5,6.2,8.3,7.7c17.4,7.7,33.1,17.6,45.5,32.3
			c0.5,0.6,0.9,1.1,1.3,1.8c0.2,0.3,0.2,0.7,0.5,2.1c-10.2,2.1-20.4,4.2-30.7,6.4c-0.2,0.5-0.5,1-0.7,1.6c2.8,2.3,5.2,5.2,8.4,6.8
			c12.8,6.6,22.1,17.1,30.8,28.2c0,0.4,0,0.7,0,1.1c-13.4-8.4-27.1-16.4-40.1-25.4c-5.1-3.5-8.5-9.4-13.2-14.8
			c12-6.6,23.3-7.9,36.7-7.4c-2.5-2.5-3.6-3.9-5.1-4.9c-12.2-8.4-24-17.5-39-20.7c-5.4-1.2-8.6-5.2-10.8-9.9
			c-5.9-12.6-11.8-25.2-17.4-37.9c-13.4-30.5-35-52.8-65.5-66.1c-6.1-2.6-13.4-2.4-20-3.8c-2.5-0.5-4.9-1.8-7.2-2.9
			c-6.9-3.5-13.6-7.3-20.7-10.4c-1.8-0.8-5.6-0.2-6.7,1.2c-1.2,1.4-0.8,4.8,0,6.9c1,2.6,2.9,5,4.7,7.2c7.3,8.7,12.5,18.5,15.5,29.5
			c2.5,9.3,6.1,18.1,13.1,25.2c4.2,4.3,1.5,9.3-0.2,13.7c-4.8,12.4-5.4,25-2.4,37.8c0.9,3.8,2.5,7.6,4.3,11.1c1.1,2.1,3.3,3.7,6,6.6
			c2.3-12.7,1.5-24.7,10.8-32.2c9.7,17.1,19.5,34.3,28.1,49.3c-9.8-7.4-20.7-17.3-25.8-32.3c-0.5,0.2-1,0.4-1.5,0.6
			c-0.7,4-1.4,7.9-2.1,11.9c-0.6,4-1.9,7.5-6.1,8.8c-4.5,1.4-8.2-0.5-11.1-3.9c-7.9-9.1-11-20.2-10.6-31.7
			c0.4-10.5,3.2-20.9,4.8-31.4c0.3-1.6,0.7-3.9-0.1-4.9c-8.3-9.1-11.1-20.9-15.6-31.9c-2.6-6.2-6-12.2-9.4-18.1
			c-3.3-5.7-7.1-11.2-10.7-16.8c0-2.2,0-4.3,0-6.5c2.9-2.9,5.8-5.8,8.7-8.7C193.1,263.1,196,263.1,198.9,263.1z"/>
		<path class="st6" d="M190.2,263.1c-2.9,2.9-5.8,5.8-8.7,8.7"/>
		<path class="st5" d="M225.5,300.7c4.3-1.8,7.3-0.5,9.6,2.8c2.3,3.4,1.7,6.4-1.3,9.6C231,309,228.3,305,225.5,300.7z"/>
	</g>
	<path class="st6" d="M298,318.7c8.7,10.2,15.8,21.7,21,34.6c4.8,11.9,10.5,23.4,16.4,34.8c1.6,3.2,5,6.2,8.3,7.7
		c17.4,7.7,33.1,17.6,45.5,32.3c0.5,0.6,0.9,1.1,1.3,1.8c0.2,0.3,0.2,0.7,0.5,2.1c-10.2,2.1-20.4,4.2-30.7,6.4
		c-0.2,0.5-0.5,1-0.7,1.6c2.8,2.3,5.2,5.2,8.4,6.8c12.8,6.6,22.1,17.1,30.8,28.2c0,0.4,0,0.7,0,1.1c-13.4-8.4-27.1-16.4-40.1-25.4
		c-5.1-3.5-8.5-9.4-13.2-14.8c12-6.6,23.3-7.9,36.7-7.4c-2.5-2.5-3.6-3.9-5.1-4.9c-12.2-8.4-24-17.5-39-20.7
		c-5.4-1.2-8.6-5.2-10.8-9.9c-5.9-12.6-11.8-25.2-17.4-37.9c-3.3-7.6-7.2-14.7-11.6-21.3"/>
</g>
</svg>
