<?xml version="1.0" encoding="utf-8"?>
<!-- Generator: Adobe Illustrator 19.1.1, SVG Export Plug-In . SVG Version: 6.00 Build 0)  -->
<svg version="1.1" xmlns="http://www.w3.org/2000/svg" xmlns:xlink="http://www.w3.org/1999/xlink" x="0px" y="0px"
	 viewBox="0 0 595.3 841.9" style="enable-background:new 0 0 595.3 841.9;" xml:space="preserve">
<style type="text/css">
	.st0{fill:#7179B6;}
	.st1{fill:#9AA0C6;}
	.st2{fill:none;}
	.st3{font-family:'LiberationSans-Bold';}
	.st4{font-size:47px;}
	.st5{fill:#E5E5D6;}
	.st6{fill:#FFFFFF;}
	.st7{display:none;}
	.st8{display:inline;fill:#FDEFF0;}
</style>
<g id="Shield_1_">
	<polygon id="Shield" class="st0" points="127.7,187.3 466.3,187.3 437,532 297,573 156.5,532.5 	"/>
	<polygon id="degradé" class="st1" points="297,216.5 441.7,216.5 416,509.3 297.6,542.8 	"/>
	<rect x="128.3" y="129.7" class="st2" width="338.7" height="62.7"/>
	<text transform="matrix(1 0 0 1 249.3204 163.7412)" class="st3 st4">PHP</text>
</g>
<g id="EPart_1">
	<polygon class="st5" points="298.8,473.1 287.1,493.7 246.9,482.1 298.8,393.7 	"/>
	<polygon class="st5" points="298.8,347.1 298.8,388.1 276.3,388.1 270.9,347.1 	"/>
	<polygon class="st5" points="298.8,265.6 298.8,309.6 202.7,309.6 196.6,265.6 	"/>
</g>
<g id="EPart_2">
	<polyline class="st6" points="298.8,265.6 397.4,265.6 394.2,306.1 371.7,347.1 390.4,347.1 388.3,388.1 348.1,388.1 298.8,473.1 
		298.8,393.7 303.8,388.1 298.8,388.1 298.8,347.1 324.5,347.1 346,309.6 298.8,309.6 	"/>
</g>
<g id="dim" class="st7">
	<rect x="195" y="258.8" class="st8" width="208.9" height="235.8"/>
</g>
</svg>
