<svg xmlns="http://www.w3.org/2000/svg" xmlns:xlink="http://www.w3.org/1999/xlink" x="0" y="0" enable-background="new 0 0 595.3 841.9" version="1.1" viewBox="0 0 595.3 841.9" xml:space="preserve"><style type="text/css">.st0{fill:#7179b6}.st1{fill:#9aa0c6}.st2{fill:none}.st3{font-family:&apos;LiberationSans-Bold&apos;}.st4{font-size:47px}.st5{fill:#e5e5d6}.st6{fill:#fff}.st7{display:none}.st8{display:inline;fill:#fdeff0}</style><g id="Shield_1_"><polygon id="Shield" points="127.7 187.3 466.3 187.3 437 532 297 573 156.5 532.5" class="st0"/><polygon id="degradé" points="297 216.5 441.7 216.5 416 509.3 297.6 542.8" class="st1"/><rect width="338.7" height="62.7" x="128.3" y="129.7" class="st2"/><text class="st3 st4" transform="matrix(1 0 0 1 249.3204 163.7412)">PHP</text></g><g id="EPart_1"><polygon points="298.8 473.1 287.1 493.7 246.9 482.1 298.8 393.7" class="st5"/><polygon points="298.8 347.1 298.8 388.1 276.3 388.1 270.9 347.1" class="st5"/><polygon points="298.8 265.6 298.8 309.6 202.7 309.6 196.6 265.6" class="st5"/></g><g id="EPart_2"><polyline points="298.8 265.6 397.4 265.6 394.2 306.1 371.7 347.1 390.4 347.1 388.3 388.1 348.1 388.1 298.8 473.1 298.8 393.7 303.8 388.1 298.8 388.1 298.8 347.1 324.5 347.1 346 309.6 298.8 309.6" class="st6"/></g><g id="dim" class="st7"><rect width="208.9" height="235.8" x="195" y="258.8" class="st8"/></g></svg>