<svg id="Calque_1" data-name="Calque 1" xmlns="http://www.w3.org/2000/svg" viewBox="0 0 595.28 841.89"><defs><style>.cls-1{fill:#567980;}</style></defs><title>Plan de travail 1</title><circle class="cls-1" cx="292.5" cy="251.5" r="187.5"/><path class="cls-1" d="M168,553.44c2.13-16.39,11.76-38.25,23.76-38.44s21.66,20.89,24.81,35.29c6.41,29.29-7.12,65-21,65.7S164.15,583,168,553.44Z"/><path class="cls-1" d="M427.72,431.38c2.86-22,15.75-51.25,31.84-51.51,15.91-.25,29,28,33.24,47.29,8.59,39.24-9.54,87-28.09,88S422.56,471,427.72,431.38Z"/><path class="cls-1" d="M377,553.44c2.13-16.39,11.76-38.25,23.76-38.44s21.66,20.89,24.81,35.29c6.41,29.29-7.12,65-21,65.7S373.15,583,377,553.44Z"/><circle class="cls-1" cx="294.5" cy="565.5" r="55.5"/><path class="cls-1" d="M265,702.55c2.53-19.43,13.93-45.33,28.16-45.55,14.08-.22,25.67,24.76,29.4,41.83,7.6,34.71-8.44,77-24.85,77.86S260.45,737.61,265,702.55Z"/><path class="cls-1" d="M261.33,666.66c9.7-7.18,26.06-13.19,32.24-7s0,22-6,30.91c-12.15,18.2-37.75,29.15-45.15,22.25S243.83,679.62,261.33,666.66Z"/><path class="cls-1" d="M323.48,666.66c-9.7-7.18-26.06-13.19-32.24-7s0,22,6,30.91c12.15,18.2,37.75,29.15,45.15,22.25S341,679.62,323.48,666.66Z"/><path class="cls-1" d="M281.69,461.31c.91-7,5-16.23,10.08-16.31s9.19,8.86,10.53,15c2.72,12.43-3,27.56-8.9,27.88S280.06,473.86,281.69,461.31Z"/><path class="cls-1" d="M314.69,460.31c.91-7,5-16.23,10.08-16.31s9.19,8.86,10.53,15c2.72,12.43-3,27.56-8.9,27.88S313.06,472.86,314.69,460.31Z"/><path class="cls-1" d="M247.69,460.31c.91-7,5-16.23,10.08-16.31s9.19,8.86,10.53,15c2.72,12.43-3,27.56-8.9,27.88S246.06,472.86,247.69,460.31Z"/><path class="cls-1" d="M99.72,431.38c2.86-22,15.75-51.25,31.84-51.51,15.91-.25,29,28,33.24,47.29,8.59,39.24-9.54,87-28.09,88S94.56,471,99.72,431.38Z"/></svg>