<svg fill="none" height="128" viewBox="0 0 128 128" width="128" xmlns="http://www.w3.org/2000/svg">
  <defs>
    <linearGradient id="bg" x1="0" y1="0" x2="128" y2="128" gradientUnits="userSpaceOnUse">
      <stop stop-color="#393E46" offset="0%"/>
      <stop stop-color="#222831" offset="100%"/>
    </linearGradient>
    <clipPath id="clip">
      <rect width="128" height="128" rx="28"/>
    </clipPath>
  </defs>
  <g clip-path="url(#clip)">
    <rect width="128" height="128" fill="url(#bg)"/>
    <g transform="translate(19 19) scale(1.3235)">
      <path fill="#00ADB5" d="m29.201 4.40976c1.4024-4.795399 8.1956-4.795399 9.598 0l4.8413 16.55444c.4787 1.6368 1.7587 2.9168 3.3955 3.3955l16.5544 4.8413c4.7954 1.4024 4.7954 8.1956 0 9.598l-16.5544 4.8413c-1.6368.4787-2.9168 1.7587-3.3955 3.3955l-4.8413 16.5544c-1.4024 4.7954-8.1956 4.7954-9.598 0l-4.8413-16.5544c-.4787-1.6368-1.7587-2.9168-3.3955-3.3955l-16.55444-4.8413c-4.795399-1.4024-4.795399-8.1956 0-9.598l16.55444-4.8413c1.6368-.4787 2.9168-1.7587 3.3955-3.3955z"/>
    </g>
  </g>
</svg>
